PathFileType	4	(X/Y/Z)	 s08c0301.trc
DataRate	CameraRate	NumFrames	NumMarkers	Units	OrigDataRate	OrigDataStartFrame	OrigNumFrames
200	200	4	50	mm	200	501	2000
Frame#	Time	racr			lacr			c7			jug			rlel			rdr			llel			ldr			s2			lic			ric			lasi			rasi			rpsi			lpsi			rgt			lgt			rth1			rth2			rth3			rth4			rlfc			rmfc			rsh1			rsh2			rsh3			rsh4			rlmal			rmmal			rcal			rtoe			rmt5			lth1			lth2			lth4			lth3			llfc			lmfc			llmal			lmmal			lcal			lmt5			lsh1			lsh2			lsh3			lsh4			ltoe			SBIKE			LBIKE			RBIKE			
		X1	Y1	Z1	X2	Y2	Z2	X3	Y3	Z3	X4	Y4	Z4	X5	Y5	Z5	X6	Y6	Z6	X7	Y7	Z7	X8	Y8	Z8	X9	Y9	Z9	X10	Y10	Z10	X11	Y11	Z11	X12	Y12	Z12	X13	Y13	Z13	X14	Y14	Z14	X15	Y15	Z15	X16	Y16	Z16	X17	Y17	Z17	X18	Y18	Z18	X19	Y19	Z19	X20	Y20	Z20	X21	Y21	Z21	X22	Y22	Z22	X23	Y23	Z23	X24	Y24	Z24	X25	Y25	Z25	X26	Y26	Z26	X27	Y27	Z27	X28	Y28	Z28	X29	Y29	Z29	X30	Y30	Z30	X31	Y31	Z31	X32	Y32	Z32	X33	Y33	Z33	X34	Y34	Z34	X35	Y35	Z35	X36	Y36	Z36	X37	Y37	Z37	X38	Y38	Z38	X39	Y39	Z39	X40	Y40	Z40	X41	Y41	Z41	X42	Y42	Z42	X43	Y43	Z43	X44	Y44	Z44	X45	Y45	Z45	X46	Y46	Z46	X47	Y47	Z47	X48	Y48	Z48	X49	Y49	Z49	X50	Y50	Z50	
501	2.5050	911.691234	1393.948579	-166.664252	863.010100	1348.181948	-458.012753	862.794198	1419.268679	-301.327493	848.602389	1258.728292	-279.114824	812.588413	1176.542117	22.132358	812.684237	890.765922	-30.833289	670.222922	1120.225627	-509.685610	817.735245	915.319851	-410.966957	312.952841	1261.638961	-128.303758	413.814704	1243.388207	-317.827878	517.787435	1239.572488	-20.987229	453.186068	1197.124150	-289.504668	515.656153	1168.438525	-67.168867	365.078797	1292.657218	-87.575964	335.598012	1305.159339	-178.418011	425.922371	1122.363265	30.297337	349.685178	1152.021845	-338.928103	485.363461	958.950389	5.027870	523.546928	880.690176	-14.595991	518.973426	795.020642	-22.117408	553.832404	890.143469	-31.028125	522.101534	676.353270	-41.561652	488.234623	685.489820	-149.354203	405.308414	608.306503	-8.267662	353.859619	538.894759	-31.316709	275.346036	502.671749	-35.669888	373.256361	522.541221	-64.590642	171.966361	435.455156	-44.004249	200.469083	434.356133	-132.171383	122.796495	493.018914	-95.135593	203.651773	206.289854	-100.739432	146.664639	279.441961	-33.168378	422.472348	1040.315704	-366.199503	490.929581	987.839641	-380.252467	520.785986	1009.290845	-374.923180	523.776247	906.026088	-391.322213	581.230101	784.375048	-386.415531	596.004634	750.712799	-281.434677	365.555615	423.458310	-381.071381	401.287013	432.515404	-297.786692	292.546989	410.545169	-341.952266	482.840334	317.806678	-413.316126	516.113686	674.259280	-408.961416	491.589000	592.803867	-393.731398	428.991035	530.974519	-390.316619	516.964722	581.558453	-365.198541	570.717816	333.430859	-348.266116	-133.669587	943.832614	-221.728093	26.198436	84.445140	-425.964456	17.465234	80.461410	-27.673592	
502	2.5100	909.496245	1394.591503	-161.134340	864.793157	1345.141350	-456.649136	862.905450	1418.032495	-300.491809	846.482114	1258.164294	-275.209073	811.759335	1176.483721	22.356376	812.861705	890.546858	-29.754086	670.304850	1119.021863	-510.503740	817.199557	915.101908	-410.976171	312.621311	1258.231129	-127.977641	414.219606	1239.274169	-318.622755	517.643008	1238.143133	-21.688123	452.946592	1193.333626	-289.840992	513.776611	1169.635009	-61.783914	364.317617	1290.429225	-87.663299	335.151534	1301.439144	-179.402385	428.125686	1121.136837	31.224621	349.040159	1147.078068	-338.578777	487.536054	958.213107	5.272463	526.799450	880.641118	-14.008880	523.618585	794.515091	-22.324675	557.166772	890.459160	-31.382229	528.732192	677.097599	-42.598322	493.723386	685.901033	-150.044118	410.410608	612.422216	-9.512887	357.468711	544.008312	-32.106144	277.925353	509.721176	-36.310166	376.966098	526.447851	-65.493490	173.347094	445.472974	-44.319351	201.406857	444.277244	-132.656300	124.348486	503.621133	-95.160439	203.276292	216.365659	-101.155570	146.860172	289.922019	-33.339889	421.373816	1034.485251	-365.632026	489.075031	980.834068	-379.333059	519.255609	1001.817482	-373.893689	520.662303	898.411168	-389.876378	576.471181	776.737116	-384.885686	590.817182	742.776632	-280.365095	365.520364	412.596566	-382.033240	401.068336	422.833876	-298.825990	292.313046	399.801220	-343.101693	482.926472	306.435540	-413.338673	513.214845	665.137781	-408.480816	489.745564	583.320448	-393.136529	428.324785	520.656623	-390.728295	514.806461	572.636720	-363.895338	570.778557	322.558095	-348.519438	-133.687011	943.832272	-221.818937	26.172396	84.407220	-425.985599	17.453361	80.399459	-27.647148	
503	2.5150	907.261600	1395.233412	-155.269488	866.790157	1342.214295	-455.087637	863.233066	1416.993407	-299.169507	844.115143	1257.879136	-271.192782	810.477149	1176.549143	23.041212	813.904114	890.435147	-27.839778	670.932387	1117.754099	-511.878437	816.581911	914.781326	-411.124045	311.871588	1255.070640	-128.416713	415.610403	1234.795254	-320.356078	517.195321	1236.686409	-22.424693	452.836166	1189.419984	-290.240381	513.622131	1168.322910	-62.424087	363.540432	1288.234257	-88.452127	334.421454	1297.841860	-180.290162	428.552810	1119.077047	31.199323	348.569097	1141.711627	-338.356019	489.110516	956.919021	6.089571	529.341576	880.327342	-13.547845	527.608321	794.332564	-21.210581	559.393470	890.582654	-30.712620	535.009635	677.773246	-44.071316	499.451629	686.208705	-150.849222	415.564127	616.823812	-10.799021	361.351125	549.379490	-32.737428	280.783238	516.922065	-37.051846	380.461324	530.694169	-66.260422	175.021934	455.635684	-44.546447	202.746092	454.364993	-133.017521	126.205064	514.223203	-95.169711	203.576044	226.526563	-101.420296	147.745884	300.263169	-33.541480	420.481157	1028.293111	-365.051683	487.205574	973.492394	-378.478146	517.318462	993.575463	-373.099955	517.462962	890.458603	-388.358672	571.730203	768.880279	-383.201010	585.409011	734.742015	-278.895781	364.899842	401.897096	-382.945034	401.221745	412.406656	-298.015414	291.597839	389.990297	-344.880490	482.222601	295.052862	-413.402166	510.134480	655.799712	-407.207078	487.860465	573.891078	-392.119307	427.442955	510.128440	-390.528634	512.174500	563.918960	-361.984138	570.291513	310.749523	-348.270001	-133.656117	943.733957	-222.155798	26.155138	84.347194	-426.039869	17.468299	80.589447	-27.571863	
504	2.5200	905.245328	1395.846546	-149.756965	868.985792	1339.822890	-454.141545	863.608687	1416.070705	-297.693893	842.718782	1257.553062	-267.692702	809.089940	1176.655560	24.215425	811.860571	890.070037	-29.849189	672.419545	1116.415283	-513.452418	816.142942	914.313561	-411.352849	311.118332	1252.071885	-129.124605	415.638891	1231.121071	-320.798595	516.488849	1235.230404	-23.053811	452.863293	1185.400989	-290.701004	513.244304	1166.981901	-62.937803	362.913547	1284.997565	-88.935995	333.800128	1294.314070	-181.162172	428.010560	1117.340532	30.596170	348.376096	1136.242487	-338.275742	490.361767	955.698569	7.646385	531.921386	879.964482	-12.792740	531.312375	793.699613	-21.546028	562.088485	891.191558	-29.749176	541.552620	678.928588	-44.806448	505.808659	686.656375	-151.669158	420.874976	621.317252	-11.995528	365.159830	554.932918	-33.561554	283.960950	524.376668	-38.088254	383.718578	535.809203	-67.688953	177.050492	465.963551	-44.814124	204.871923	464.100699	-133.501393	128.460181	524.843946	-95.389377	204.759792	236.953977	-101.576942	149.168343	310.957818	-33.704213	419.576684	1021.895921	-364.798613	485.327155	965.808448	-377.738984	515.857819	985.410961	-372.255372	514.106312	882.193726	-386.906604	566.771514	760.873130	-381.378915	575.227634	725.752510	-280.438686	363.871231	391.442795	-383.310581	400.011817	401.730174	-298.639431	291.073135	379.314330	-344.387898	480.973195	283.922856	-413.301497	506.983285	646.427941	-405.566804	485.606525	564.391938	-390.853852	426.062786	499.816838	-390.128638	509.220282	555.151629	-359.934314	569.111142	299.118107	-348.221178	-133.715934	943.707921	-222.238957	26.137257	84.292603	-426.113955	17.445467	80.534782	-27.663371	
